<?xml version="1.0" encoding="UTF-8" standalone="no"?>
<!DOCTYPE svg PUBLIC "-//W3C//DTD SVG 1.1//EN" "http://www.w3.org/Graphics/SVG/1.1/DTD/svg11.dtd">
<!-- 由 Microsoft Visio, SVG Export 生成 motation.svg 页-1 -->
<svg xmlns="http://www.w3.org/2000/svg" xmlns:xlink="http://www.w3.org/1999/xlink" xmlns:ev="http://www.w3.org/2001/xml-events"
		xmlns:v="http://schemas.microsoft.com/visio/2003/SVGExtensions/" width="6.9211in" height="1.57661in"
		viewBox="0 0 498.319 113.516" xml:space="preserve" color-interpolation-filters="sRGB" class="st10">
	<v:documentProperties v:langID="2052" v:metric="true" v:viewMarkup="false"/>

	<style type="text/css">
	<![CDATA[
		.st1 {fill:#ffffff;stroke:#000000;stroke-linecap:round;stroke-linejoin:round;stroke-width:1.25}
		.st2 {fill:#ffffff;stroke:#000000;stroke-linecap:round;stroke-linejoin:round;stroke-width:1}
		.st3 {stroke:#000000;stroke-linecap:round;stroke-linejoin:round;stroke-width:0.75}
		.st4 {marker-end:url(#mrkr13-72);stroke:#000000;stroke-linecap:round;stroke-linejoin:round;stroke-width:0.75}
		.st5 {fill:#000000;fill-opacity:1;stroke:#000000;stroke-opacity:1;stroke-width:0.22935779816514}
		.st6 {fill:none;stroke:none;stroke-linecap:round;stroke-linejoin:round;stroke-width:0.75}
		.st7 {fill:#000000;font-family:Times New Roman;font-size:0.666664em;font-style:italic}
		.st8 {fill:#000000;stroke:#000000;stroke-linecap:round;stroke-linejoin:round;stroke-width:0.24}
		.st9 {fill:#000000;stroke:#000000;stroke-linecap:round;stroke-linejoin:round;stroke-width:0.75}
		.st10 {fill:none;fill-rule:evenodd;font-size:12px;overflow:visible;stroke-linecap:square;stroke-miterlimit:3}
	]]>
	</style>

	<defs id="Markers">
		<g id="lend13">
			<path d="M 3 1 L 0 0 L 3 -1 L 3 1 " style="stroke:none"/>
		</g>
		<marker id="mrkr13-72" class="st5" v:arrowType="13" v:arrowSize="2" v:setback="13.08" refX="-13.08" orient="auto"
				markerUnits="strokeWidth" overflow="visible">
			<use xlink:href="#lend13" transform="scale(-4.36,-4.36) "/>
		</marker>
	</defs>
	<g v:mID="0" v:index="1" v:groupContext="foregroundPage">
		<title>页-1</title>
		<v:pageProperties v:drawingScale="0.0393701" v:pageScale="0.0393701" v:drawingUnits="24" v:shadowOffsetX="8.50394"
				v:shadowOffsetY="-8.50394"/>
		<g id="group63-1" transform="translate(10.3406,-10.3406)" v:mID="63" v:groupContext="group">
			<title>工作表.63</title>
			<g id="group58-2" v:mID="58" v:groupContext="group">
				<title>工作表.58</title>
				<g id="group56-3" transform="translate(4.96063,-1.41732)" v:mID="56" v:groupContext="group">
					<title>工作表.56</title>
					<g id="shape1-4" v:mID="1" v:groupContext="shape" transform="translate(17.0079,-12.7559)">
						<title>工作表.1</title>
						<rect x="0" y="51.1537" width="48.189" height="62.3622" class="st1"/>
					</g>
					<g id="group33-6" transform="translate(66.6142,-62.126)" v:mID="33" v:groupContext="group">
						<title>工作表.33</title>
						<g id="shape2-7" v:mID="2" v:groupContext="shape" transform="translate(1.41804E-07,1.42109E-14)">
							<title>工作表.2</title>
							<rect x="0" y="87.5317" width="15.5906" height="25.9843" class="st2"/>
						</g>
						<g id="shape18-9" v:mID="18" v:groupContext="shape" transform="translate(88.4884,167.8) rotate(135)">
							<title>工作表.18</title>
							<path d="M0 113.52 L11.63 113.52" class="st3"/>
						</g>
						<g id="shape21-12" v:mID="21" v:groupContext="shape" transform="translate(96.4597,167.194) rotate(134.569)">
							<title>工作表.21</title>
							<path d="M0 113.52 L22.22 113.52" class="st3"/>
						</g>
						<g id="shape22-15" v:mID="22" v:groupContext="shape" transform="translate(95.8585,175.406) rotate(135)">
							<title>工作表.22</title>
							<path d="M0 113.52 L22.05 113.52" class="st3"/>
						</g>
						<g id="shape24-18" v:mID="24" v:groupContext="shape" transform="translate(95.6818,183.236) rotate(135.126)">
							<title>工作表.24</title>
							<path d="M0 113.52 L15.2 113.52" class="st3"/>
						</g>
					</g>
					<g id="group34-21" transform="translate(66.6142,201.048) scale(1,-1)" v:mID="34" v:groupContext="group">
						<title>工作表.34</title>
						<g id="shape35-22" v:mID="35" v:groupContext="shape" transform="translate(1.41804E-07,1.42109E-14)">
							<title>工作表.35</title>
							<rect x="0" y="87.5317" width="15.5906" height="25.9843" class="st2"/>
						</g>
						<g id="shape36-24" v:mID="36" v:groupContext="shape" transform="translate(88.4884,167.8) rotate(135)">
							<title>工作表.36</title>
							<path d="M0 113.52 L11.63 113.52" class="st3"/>
						</g>
						<g id="shape37-27" v:mID="37" v:groupContext="shape" transform="translate(96.4597,167.194) rotate(134.569)">
							<title>工作表.37</title>
							<path d="M0 113.52 L22.22 113.52" class="st3"/>
						</g>
						<g id="shape38-30" v:mID="38" v:groupContext="shape" transform="translate(95.8585,175.406) rotate(135)">
							<title>工作表.38</title>
							<path d="M0 113.52 L22.05 113.52" class="st3"/>
						</g>
						<g id="shape39-33" v:mID="39" v:groupContext="shape" transform="translate(95.6818,183.236) rotate(135.126)">
							<title>工作表.39</title>
							<path d="M0 113.52 L15.2 113.52" class="st3"/>
						</g>
					</g>
					<g id="group40-36" transform="translate(1.39888E-14,138.922) scale(1,-1)" v:mID="40" v:groupContext="group">
						<title>工作表.40</title>
						<g id="shape41-37" v:mID="41" v:groupContext="shape" transform="translate(1.41804E-07,1.42109E-14)">
							<title>工作表.41</title>
							<rect x="0" y="87.5317" width="15.5906" height="25.9843" class="st2"/>
						</g>
						<g id="shape42-39" v:mID="42" v:groupContext="shape" transform="translate(88.4884,167.8) rotate(135)">
							<title>工作表.42</title>
							<path d="M0 113.52 L11.63 113.52" class="st3"/>
						</g>
						<g id="shape43-42" v:mID="43" v:groupContext="shape" transform="translate(96.4597,167.194) rotate(134.569)">
							<title>工作表.43</title>
							<path d="M0 113.52 L22.22 113.52" class="st3"/>
						</g>
						<g id="shape44-45" v:mID="44" v:groupContext="shape" transform="translate(95.8585,175.406) rotate(135)">
							<title>工作表.44</title>
							<path d="M0 113.52 L22.05 113.52" class="st3"/>
						</g>
						<g id="shape45-48" v:mID="45" v:groupContext="shape" transform="translate(95.6818,183.236) rotate(135.126)">
							<title>工作表.45</title>
							<path d="M0 113.52 L15.2 113.52" class="st3"/>
						</g>
					</g>
					<g id="group46-51" v:mID="46" v:groupContext="group">
						<title>工作表.46</title>
						<g id="shape47-52" v:mID="47" v:groupContext="shape" transform="translate(1.41804E-07,1.42109E-14)">
							<title>工作表.47</title>
							<rect x="0" y="87.5317" width="15.5906" height="25.9843" class="st2"/>
						</g>
						<g id="shape48-54" v:mID="48" v:groupContext="shape" transform="translate(88.4884,167.8) rotate(135)">
							<title>工作表.48</title>
							<path d="M0 113.52 L11.63 113.52" class="st3"/>
						</g>
						<g id="shape49-57" v:mID="49" v:groupContext="shape" transform="translate(96.4597,167.194) rotate(134.569)">
							<title>工作表.49</title>
							<path d="M0 113.52 L22.22 113.52" class="st3"/>
						</g>
						<g id="shape50-60" v:mID="50" v:groupContext="shape" transform="translate(95.8585,175.406) rotate(135)">
							<title>工作表.50</title>
							<path d="M0 113.52 L22.05 113.52" class="st3"/>
						</g>
						<g id="shape51-63" v:mID="51" v:groupContext="shape" transform="translate(95.6818,183.236) rotate(135.126)">
							<title>工作表.51</title>
							<path d="M0 113.52 L15.2 113.52" class="st3"/>
						</g>
					</g>
				</g>
				<g id="group55-66" v:mID="55" v:groupContext="group">
					<title>工作表.55</title>
					<g id="shape53-67" v:mID="53" v:groupContext="shape" transform="translate(1.59872E-14,-46.063)">
						<title>工作表.53</title>
						<path d="M0 113.52 L82.32 113.52" class="st4"/>
					</g>
					<g id="shape54-73" v:mID="54" v:groupContext="shape" transform="translate(-67.4529,113.516) rotate(-90)">
						<title>工作表.54</title>
						<path d="M0 113.52 L82.32 113.52" class="st4"/>
					</g>
				</g>
			</g>
			<g id="shape60-78" v:mID="60" v:groupContext="shape" transform="translate(72.9921,-48.189)">
				<title>工作表.60</title>
				<desc>x</desc>
				<v:textBlock v:margins="rect(4,4,4,4)" v:tabSpace="42.5197"/>
				<v:textRect cx="4.96062" cy="109.723" width="9.93" height="7.58641"/>
				<rect x="0" y="105.93" width="9.92125" height="7.58641" class="st6"/>
				<text x="4" y="112.12" class="st7" v:langID="2052"><v:paragraph v:horizAlign="1"/><v:tabList/>x</text>			</g>
			<g id="shape62-81" v:mID="62" v:groupContext="shape" transform="translate(48.189,-81.2462)">
				<title>工作表.62</title>
				<desc>y</desc>
				<v:textBlock v:margins="rect(4,4,4,4)" v:tabSpace="42.5197"/>
				<v:textRect cx="4.96062" cy="109.723" width="9.93" height="7.58641"/>
				<rect x="0" y="105.93" width="9.92125" height="7.58641" class="st6"/>
				<text x="4" y="112.12" class="st7" v:langID="2052"><v:paragraph v:horizAlign="1"/><v:tabList/>y</text>			</g>
		</g>
		<g id="shape64-84" v:mID="64" v:groupContext="shape" transform="translate(121.731,12.065) rotate(90)">
			<title>普通箭头</title>
			<v:userDefs>
				<v:ud v:nameU="visVersion" v:val="VT0(15):26"/>
				<v:ud v:nameU="ArrowType" v:prompt="" v:val="VT0(2):26"/>
			</v:userDefs>
			<path d="M0 113.52 L8.06 110.68 L8.06 112.1 L28.75 112.1 L28.75 113.52 L28.75 114.93 L8.06 114.93 L8.06 116.35 L0 113.52
						 Z" class="st8"/>
		</g>
		<g id="shape65-86" v:mID="65" v:groupContext="shape" transform="translate(121.731,74.4273) rotate(90)">
			<title>普通箭头.65</title>
			<v:userDefs>
				<v:ud v:nameU="visVersion" v:val="VT0(15):26"/>
				<v:ud v:nameU="ArrowType" v:prompt="" v:val="VT0(2):26"/>
			</v:userDefs>
			<path d="M0 113.52 L8.06 110.68 L8.06 112.1 L28.75 112.1 L28.75 113.52 L28.75 114.93 L8.06 114.93 L8.06 116.35 L0 113.52
						 Z" class="st8"/>
		</g>
		<g id="shape66-88" v:mID="66" v:groupContext="shape" transform="translate(218.109,12.065) rotate(90)">
			<title>普通箭头.66</title>
			<v:userDefs>
				<v:ud v:nameU="visVersion" v:val="VT0(15):26"/>
				<v:ud v:nameU="ArrowType" v:prompt="" v:val="VT0(2):26"/>
			</v:userDefs>
			<path d="M0 113.52 L8.06 110.68 L8.06 112.1 L28.75 112.1 L28.75 113.52 L28.75 114.93 L8.06 114.93 L8.06 116.35 L0 113.52
						 Z" class="st8"/>
		</g>
		<g id="shape67-90" v:mID="67" v:groupContext="shape" transform="translate(218.109,74.4273) rotate(90)">
			<title>普通箭头.67</title>
			<v:userDefs>
				<v:ud v:nameU="visVersion" v:val="VT0(15):26"/>
				<v:ud v:nameU="ArrowType" v:prompt="" v:val="VT0(2):26"/>
			</v:userDefs>
			<path d="M0 113.52 L8.06 110.68 L8.06 112.1 L28.75 112.1 L28.75 113.52 L28.75 114.93 L8.06 114.93 L8.06 116.35 L0 113.52
						 Z" class="st8"/>
		</g>
		<g id="shape68-92" v:mID="68" v:groupContext="shape" transform="translate(169.92,39.8007) rotate(90)">
			<title>普通箭头.68</title>
			<v:userDefs>
				<v:ud v:nameU="visVersion" v:val="VT0(15):26"/>
				<v:ud v:nameU="ArrowType" v:prompt="" v:val="VT0(2):26"/>
			</v:userDefs>
			<path d="M0 113.52 L11.34 102.18 L11.34 107.85 L32.19 107.85 L32.19 113.52 L32.19 119.19 L11.34 119.19 L11.34 124.85
						 L0 113.52 Z" class="st2"/>
		</g>
		<g id="group69-94" transform="translate(140.734,-10.3407)" v:mID="69" v:groupContext="group">
			<title>工作表.69</title>
			<g id="group70-95" v:mID="70" v:groupContext="group">
				<title>工作表.70</title>
				<g id="group71-96" transform="translate(4.96063,-1.41732)" v:mID="71" v:groupContext="group">
					<title>工作表.71</title>
					<g id="shape72-97" v:mID="72" v:groupContext="shape" transform="translate(17.0079,-12.7559)">
						<title>工作表.72</title>
						<rect x="0" y="51.1537" width="48.189" height="62.3622" class="st1"/>
					</g>
					<g id="group73-99" transform="translate(66.6142,-62.126)" v:mID="73" v:groupContext="group">
						<title>工作表.73</title>
						<g id="shape74-100" v:mID="74" v:groupContext="shape" transform="translate(1.41804E-07,1.42109E-14)">
							<title>工作表.74</title>
							<rect x="0" y="87.5317" width="15.5906" height="25.9843" class="st2"/>
						</g>
						<g id="shape75-102" v:mID="75" v:groupContext="shape" transform="translate(88.4884,167.8) rotate(135)">
							<title>工作表.75</title>
							<path d="M0 113.52 L11.63 113.52" class="st3"/>
						</g>
						<g id="shape76-105" v:mID="76" v:groupContext="shape"
								transform="translate(96.4597,167.194) rotate(134.569)">
							<title>工作表.76</title>
							<path d="M0 113.52 L22.22 113.52" class="st3"/>
						</g>
						<g id="shape77-108" v:mID="77" v:groupContext="shape" transform="translate(95.8585,175.406) rotate(135)">
							<title>工作表.77</title>
							<path d="M0 113.52 L22.05 113.52" class="st3"/>
						</g>
						<g id="shape78-111" v:mID="78" v:groupContext="shape"
								transform="translate(95.6818,183.236) rotate(135.126)">
							<title>工作表.78</title>
							<path d="M0 113.52 L15.2 113.52" class="st3"/>
						</g>
					</g>
					<g id="group79-114" transform="translate(66.6142,201.048) scale(1,-1)" v:mID="79" v:groupContext="group">
						<title>工作表.79</title>
						<g id="shape80-115" v:mID="80" v:groupContext="shape" transform="translate(1.41804E-07,1.42109E-14)">
							<title>工作表.80</title>
							<rect x="0" y="87.5317" width="15.5906" height="25.9843" class="st2"/>
						</g>
						<g id="shape81-117" v:mID="81" v:groupContext="shape" transform="translate(88.4884,167.8) rotate(135)">
							<title>工作表.81</title>
							<path d="M0 113.52 L11.63 113.52" class="st3"/>
						</g>
						<g id="shape82-120" v:mID="82" v:groupContext="shape"
								transform="translate(96.4597,167.194) rotate(134.569)">
							<title>工作表.82</title>
							<path d="M0 113.52 L22.22 113.52" class="st3"/>
						</g>
						<g id="shape83-123" v:mID="83" v:groupContext="shape" transform="translate(95.8585,175.406) rotate(135)">
							<title>工作表.83</title>
							<path d="M0 113.52 L22.05 113.52" class="st3"/>
						</g>
						<g id="shape84-126" v:mID="84" v:groupContext="shape"
								transform="translate(95.6818,183.236) rotate(135.126)">
							<title>工作表.84</title>
							<path d="M0 113.52 L15.2 113.52" class="st3"/>
						</g>
					</g>
					<g id="group85-129" transform="translate(1.39888E-14,138.922) scale(1,-1)" v:mID="85" v:groupContext="group">
						<title>工作表.85</title>
						<g id="shape86-130" v:mID="86" v:groupContext="shape" transform="translate(1.41804E-07,1.42109E-14)">
							<title>工作表.86</title>
							<rect x="0" y="87.5317" width="15.5906" height="25.9843" class="st2"/>
						</g>
						<g id="shape87-132" v:mID="87" v:groupContext="shape" transform="translate(88.4884,167.8) rotate(135)">
							<title>工作表.87</title>
							<path d="M0 113.52 L11.63 113.52" class="st3"/>
						</g>
						<g id="shape88-135" v:mID="88" v:groupContext="shape"
								transform="translate(96.4597,167.194) rotate(134.569)">
							<title>工作表.88</title>
							<path d="M0 113.52 L22.22 113.52" class="st3"/>
						</g>
						<g id="shape89-138" v:mID="89" v:groupContext="shape" transform="translate(95.8585,175.406) rotate(135)">
							<title>工作表.89</title>
							<path d="M0 113.52 L22.05 113.52" class="st3"/>
						</g>
						<g id="shape90-141" v:mID="90" v:groupContext="shape"
								transform="translate(95.6818,183.236) rotate(135.126)">
							<title>工作表.90</title>
							<path d="M0 113.52 L15.2 113.52" class="st3"/>
						</g>
					</g>
					<g id="group91-144" v:mID="91" v:groupContext="group">
						<title>工作表.91</title>
						<g id="shape92-145" v:mID="92" v:groupContext="shape" transform="translate(1.41804E-07,1.42109E-14)">
							<title>工作表.92</title>
							<rect x="0" y="87.5317" width="15.5906" height="25.9843" class="st2"/>
						</g>
						<g id="shape93-147" v:mID="93" v:groupContext="shape" transform="translate(88.4884,167.8) rotate(135)">
							<title>工作表.93</title>
							<path d="M0 113.52 L11.63 113.52" class="st3"/>
						</g>
						<g id="shape94-150" v:mID="94" v:groupContext="shape"
								transform="translate(96.4597,167.194) rotate(134.569)">
							<title>工作表.94</title>
							<path d="M0 113.52 L22.22 113.52" class="st3"/>
						</g>
						<g id="shape95-153" v:mID="95" v:groupContext="shape" transform="translate(95.8585,175.406) rotate(135)">
							<title>工作表.95</title>
							<path d="M0 113.52 L22.05 113.52" class="st3"/>
						</g>
						<g id="shape96-156" v:mID="96" v:groupContext="shape"
								transform="translate(95.6818,183.236) rotate(135.126)">
							<title>工作表.96</title>
							<path d="M0 113.52 L15.2 113.52" class="st3"/>
						</g>
					</g>
				</g>
				<g id="group97-159" v:mID="97" v:groupContext="group">
					<title>工作表.97</title>
					<g id="shape98-160" v:mID="98" v:groupContext="shape" transform="translate(1.59872E-14,-46.063)">
						<title>工作表.98</title>
						<path d="M0 113.52 L82.32 113.52" class="st4"/>
					</g>
					<g id="shape99-165" v:mID="99" v:groupContext="shape" transform="translate(-67.4529,113.516) rotate(-90)">
						<title>工作表.99</title>
						<path d="M0 113.52 L82.32 113.52" class="st4"/>
					</g>
				</g>
			</g>
			<g id="shape100-170" v:mID="100" v:groupContext="shape" transform="translate(72.9921,-48.189)">
				<title>工作表.100</title>
				<desc>x</desc>
				<v:textBlock v:margins="rect(4,4,4,4)" v:tabSpace="42.5197"/>
				<v:textRect cx="4.96062" cy="109.723" width="9.93" height="7.58641"/>
				<rect x="0" y="105.93" width="9.92125" height="7.58641" class="st6"/>
				<text x="4" y="112.12" class="st7" v:langID="2052"><v:paragraph v:horizAlign="1"/><v:tabList/>x</text>			</g>
			<g id="shape101-173" v:mID="101" v:groupContext="shape" transform="translate(48.189,-81.2462)">
				<title>工作表.101</title>
				<desc>y</desc>
				<v:textBlock v:margins="rect(4,4,4,4)" v:tabSpace="42.5197"/>
				<v:textRect cx="4.96062" cy="109.723" width="9.93" height="7.58641"/>
				<rect x="0" y="105.93" width="9.92125" height="7.58641" class="st6"/>
				<text x="4" y="112.12" class="st7" v:langID="2052"><v:paragraph v:horizAlign="1"/><v:tabList/>y</text>			</g>
		</g>
		<g id="shape102-176" v:mID="102" v:groupContext="shape" transform="translate(252.124,12.065) rotate(90)">
			<title>普通箭头.102</title>
			<v:userDefs>
				<v:ud v:nameU="visVersion" v:val="VT0(15):26"/>
				<v:ud v:nameU="ArrowType" v:prompt="" v:val="VT0(2):26"/>
			</v:userDefs>
			<path d="M0 113.52 L8.06 110.68 L8.06 112.1 L28.75 112.1 L28.75 113.52 L28.75 114.93 L8.06 114.93 L8.06 116.35 L0 113.52
						 Z" class="st8"/>
		</g>
		<g id="shape103-178" v:mID="103" v:groupContext="shape" transform="translate(252.124,103.175) rotate(90) scale(-1,1)">
			<title>普通箭头.103</title>
			<v:userDefs>
				<v:ud v:nameU="visVersion" v:val="VT0(15):26"/>
				<v:ud v:nameU="ArrowType" v:prompt="" v:val="VT0(2):26"/>
			</v:userDefs>
			<path d="M0 113.52 L8.06 110.68 L8.06 112.1 L28.75 112.1 L28.75 113.52 L28.75 114.93 L8.06 114.93 L8.06 116.35 L0 113.52
						 Z" class="st8"/>
		</g>
		<g id="shape104-180" v:mID="104" v:groupContext="shape" transform="translate(348.502,40.8131) rotate(90) scale(-1,1)">
			<title>普通箭头.104</title>
			<v:userDefs>
				<v:ud v:nameU="visVersion" v:val="VT0(15):26"/>
				<v:ud v:nameU="ArrowType" v:prompt="" v:val="VT0(2):26"/>
			</v:userDefs>
			<path d="M0 113.52 L8.06 110.68 L8.06 112.1 L28.75 112.1 L28.75 113.52 L28.75 114.93 L8.06 114.93 L8.06 116.35 L0 113.52
						 Z" class="st8"/>
		</g>
		<g id="shape105-182" v:mID="105" v:groupContext="shape" transform="translate(348.502,74.4272) rotate(90)">
			<title>普通箭头.105</title>
			<v:userDefs>
				<v:ud v:nameU="visVersion" v:val="VT0(15):26"/>
				<v:ud v:nameU="ArrowType" v:prompt="" v:val="VT0(2):26"/>
			</v:userDefs>
			<path d="M0 113.52 L8.06 110.68 L8.06 112.1 L28.75 112.1 L28.75 113.52 L28.75 114.93 L8.06 114.93 L8.06 116.35 L0 113.52
						 Z" class="st8"/>
		</g>
		<g id="shape106-184" v:mID="106" v:groupContext="shape" transform="translate(203.805,170.628) rotate(180)">
			<title>普通箭头.106</title>
			<v:userDefs>
				<v:ud v:nameU="visVersion" v:val="VT0(15):26"/>
				<v:ud v:nameU="ArrowType" v:prompt="" v:val="VT0(2):26"/>
			</v:userDefs>
			<path d="M0 113.52 L11.34 102.18 L11.34 107.85 L32.19 107.85 L32.19 113.52 L32.19 119.19 L11.34 119.19 L11.34 124.85
						 L0 113.52 Z" class="st2"/>
		</g>
		<g id="group107-186" transform="translate(269.711,-10.3407)" v:mID="107" v:groupContext="group">
			<title>工作表.107</title>
			<g id="group108-187" v:mID="108" v:groupContext="group">
				<title>工作表.108</title>
				<g id="group109-188" transform="translate(4.96063,-1.41732)" v:mID="109" v:groupContext="group">
					<title>工作表.109</title>
					<g id="shape110-189" v:mID="110" v:groupContext="shape" transform="translate(17.0079,-12.7559)">
						<title>工作表.110</title>
						<rect x="0" y="51.1537" width="48.189" height="62.3622" class="st1"/>
					</g>
					<g id="group111-191" transform="translate(66.6142,-62.126)" v:mID="111" v:groupContext="group">
						<title>工作表.111</title>
						<g id="shape112-192" v:mID="112" v:groupContext="shape" transform="translate(1.41804E-07,1.42109E-14)">
							<title>工作表.112</title>
							<rect x="0" y="87.5317" width="15.5906" height="25.9843" class="st2"/>
						</g>
						<g id="shape113-194" v:mID="113" v:groupContext="shape" transform="translate(88.4884,167.8) rotate(135)">
							<title>工作表.113</title>
							<path d="M0 113.52 L11.63 113.52" class="st3"/>
						</g>
						<g id="shape114-197" v:mID="114" v:groupContext="shape"
								transform="translate(96.4597,167.194) rotate(134.569)">
							<title>工作表.114</title>
							<path d="M0 113.52 L22.22 113.52" class="st3"/>
						</g>
						<g id="shape115-200" v:mID="115" v:groupContext="shape" transform="translate(95.8585,175.406) rotate(135)">
							<title>工作表.115</title>
							<path d="M0 113.52 L22.05 113.52" class="st3"/>
						</g>
						<g id="shape116-203" v:mID="116" v:groupContext="shape"
								transform="translate(95.6818,183.236) rotate(135.126)">
							<title>工作表.116</title>
							<path d="M0 113.52 L15.2 113.52" class="st3"/>
						</g>
					</g>
					<g id="group117-206" transform="translate(66.6142,201.048) scale(1,-1)" v:mID="117" v:groupContext="group">
						<title>工作表.117</title>
						<g id="shape118-207" v:mID="118" v:groupContext="shape" transform="translate(1.41804E-07,1.42109E-14)">
							<title>工作表.118</title>
							<rect x="0" y="87.5317" width="15.5906" height="25.9843" class="st2"/>
						</g>
						<g id="shape119-209" v:mID="119" v:groupContext="shape" transform="translate(88.4884,167.8) rotate(135)">
							<title>工作表.119</title>
							<path d="M0 113.52 L11.63 113.52" class="st3"/>
						</g>
						<g id="shape120-212" v:mID="120" v:groupContext="shape"
								transform="translate(96.4597,167.194) rotate(134.569)">
							<title>工作表.120</title>
							<path d="M0 113.52 L22.22 113.52" class="st3"/>
						</g>
						<g id="shape121-215" v:mID="121" v:groupContext="shape" transform="translate(95.8585,175.406) rotate(135)">
							<title>工作表.121</title>
							<path d="M0 113.52 L22.05 113.52" class="st3"/>
						</g>
						<g id="shape122-218" v:mID="122" v:groupContext="shape"
								transform="translate(95.6818,183.236) rotate(135.126)">
							<title>工作表.122</title>
							<path d="M0 113.52 L15.2 113.52" class="st3"/>
						</g>
					</g>
					<g id="group123-221" transform="translate(1.39888E-14,138.922) scale(1,-1)" v:mID="123" v:groupContext="group">
						<title>工作表.123</title>
						<g id="shape124-222" v:mID="124" v:groupContext="shape" transform="translate(1.41804E-07,1.42109E-14)">
							<title>工作表.124</title>
							<rect x="0" y="87.5317" width="15.5906" height="25.9843" class="st2"/>
						</g>
						<g id="shape125-224" v:mID="125" v:groupContext="shape" transform="translate(88.4884,167.8) rotate(135)">
							<title>工作表.125</title>
							<path d="M0 113.52 L11.63 113.52" class="st3"/>
						</g>
						<g id="shape126-227" v:mID="126" v:groupContext="shape"
								transform="translate(96.4597,167.194) rotate(134.569)">
							<title>工作表.126</title>
							<path d="M0 113.52 L22.22 113.52" class="st3"/>
						</g>
						<g id="shape127-230" v:mID="127" v:groupContext="shape" transform="translate(95.8585,175.406) rotate(135)">
							<title>工作表.127</title>
							<path d="M0 113.52 L22.05 113.52" class="st3"/>
						</g>
						<g id="shape128-233" v:mID="128" v:groupContext="shape"
								transform="translate(95.6818,183.236) rotate(135.126)">
							<title>工作表.128</title>
							<path d="M0 113.52 L15.2 113.52" class="st3"/>
						</g>
					</g>
					<g id="group129-236" v:mID="129" v:groupContext="group">
						<title>工作表.129</title>
						<g id="shape130-237" v:mID="130" v:groupContext="shape" transform="translate(1.41804E-07,1.42109E-14)">
							<title>工作表.130</title>
							<rect x="0" y="87.5317" width="15.5906" height="25.9843" class="st2"/>
						</g>
						<g id="shape131-239" v:mID="131" v:groupContext="shape" transform="translate(88.4884,167.8) rotate(135)">
							<title>工作表.131</title>
							<path d="M0 113.52 L11.63 113.52" class="st3"/>
						</g>
						<g id="shape132-242" v:mID="132" v:groupContext="shape"
								transform="translate(96.4597,167.194) rotate(134.569)">
							<title>工作表.132</title>
							<path d="M0 113.52 L22.22 113.52" class="st3"/>
						</g>
						<g id="shape133-245" v:mID="133" v:groupContext="shape" transform="translate(95.8585,175.406) rotate(135)">
							<title>工作表.133</title>
							<path d="M0 113.52 L22.05 113.52" class="st3"/>
						</g>
						<g id="shape134-248" v:mID="134" v:groupContext="shape"
								transform="translate(95.6818,183.236) rotate(135.126)">
							<title>工作表.134</title>
							<path d="M0 113.52 L15.2 113.52" class="st3"/>
						</g>
					</g>
				</g>
				<g id="group135-251" v:mID="135" v:groupContext="group">
					<title>工作表.135</title>
					<g id="shape136-252" v:mID="136" v:groupContext="shape" transform="translate(1.59872E-14,-46.063)">
						<title>工作表.136</title>
						<path d="M0 113.52 L82.32 113.52" class="st4"/>
					</g>
					<g id="shape137-257" v:mID="137" v:groupContext="shape" transform="translate(-67.4529,113.516) rotate(-90)">
						<title>工作表.137</title>
						<path d="M0 113.52 L82.32 113.52" class="st4"/>
					</g>
				</g>
			</g>
			<g id="shape138-262" v:mID="138" v:groupContext="shape" transform="translate(72.9921,-48.189)">
				<title>工作表.138</title>
				<desc>x</desc>
				<v:textBlock v:margins="rect(4,4,4,4)" v:tabSpace="42.5197"/>
				<v:textRect cx="4.96062" cy="109.723" width="9.93" height="7.58641"/>
				<rect x="0" y="105.93" width="9.92125" height="7.58641" class="st6"/>
				<text x="4" y="112.12" class="st7" v:langID="2052"><v:paragraph v:horizAlign="1"/><v:tabList/>x</text>			</g>
			<g id="shape139-265" v:mID="139" v:groupContext="shape" transform="translate(48.189,-81.2462)">
				<title>工作表.139</title>
				<desc>y</desc>
				<v:textBlock v:margins="rect(4,4,4,4)" v:tabSpace="42.5197"/>
				<v:textRect cx="4.96062" cy="109.723" width="9.93" height="7.58641"/>
				<rect x="0" y="105.93" width="9.92125" height="7.58641" class="st6"/>
				<text x="4" y="112.12" class="st7" v:langID="2052"><v:paragraph v:horizAlign="1"/><v:tabList/>y</text>			</g>
		</g>
		<g id="shape140-268" v:mID="140" v:groupContext="shape" transform="translate(381.101,12.065) rotate(90)">
			<title>普通箭头.140</title>
			<v:userDefs>
				<v:ud v:nameU="visVersion" v:val="VT0(15):26"/>
				<v:ud v:nameU="ArrowType" v:prompt="" v:val="VT0(2):26"/>
			</v:userDefs>
			<path d="M0 113.52 L8.06 110.68 L8.06 112.1 L28.75 112.1 L28.75 113.52 L28.75 114.93 L8.06 114.93 L8.06 116.35 L0 113.52
						 Z" class="st8"/>
		</g>
		<g id="shape141-270" v:mID="141" v:groupContext="shape" transform="translate(381.101,74.4272) rotate(90)">
			<title>普通箭头.141</title>
			<v:userDefs>
				<v:ud v:nameU="visVersion" v:val="VT0(15):26"/>
				<v:ud v:nameU="ArrowType" v:prompt="" v:val="VT0(2):26"/>
			</v:userDefs>
			<path d="M0 113.52 L8.06 110.68 L8.06 112.1 L28.75 112.1 L28.75 113.52 L28.75 114.93 L8.06 114.93 L8.06 116.35 L0 113.52
						 Z" class="st8"/>
		</g>
		<g id="shape142-272" v:mID="142" v:groupContext="shape" transform="translate(477.479,40.8131) rotate(90) scale(-1,1)">
			<title>普通箭头.142</title>
			<v:userDefs>
				<v:ud v:nameU="visVersion" v:val="VT0(15):26"/>
				<v:ud v:nameU="ArrowType" v:prompt="" v:val="VT0(2):26"/>
			</v:userDefs>
			<path d="M0 113.52 L8.06 110.68 L8.06 112.1 L28.75 112.1 L28.75 113.52 L28.75 114.93 L8.06 114.93 L8.06 116.35 L0 113.52
						 Z" class="st8"/>
		</g>
		<g id="shape143-274" v:mID="143" v:groupContext="shape" transform="translate(477.479,103.175) rotate(90) scale(-1,1)">
			<title>普通箭头.143</title>
			<v:userDefs>
				<v:ud v:nameU="visVersion" v:val="VT0(15):26"/>
				<v:ud v:nameU="ArrowType" v:prompt="" v:val="VT0(2):26"/>
			</v:userDefs>
			<path d="M0 113.52 L8.06 110.68 L8.06 112.1 L28.75 112.1 L28.75 113.52 L28.75 114.93 L8.06 114.93 L8.06 116.35 L0 113.52
						 Z" class="st8"/>
		</g>
		<g id="shape183-276" v:mID="183" v:groupContext="shape" transform="translate(348.814,-34.8404) rotate(30)">
			<title>环形箭头</title>
			<v:userDefs>
				<v:ud v:nameU="CtrlAng1" v:prompt="" v:val="VT0(5.4977871437822):32"/>
				<v:ud v:nameU="CtrlAng2" v:prompt="" v:val="VT0(3.1415926535898):32"/>
				<v:ud v:nameU="CtrlAng3" v:prompt="" v:val="VT0(0):32"/>
				<v:ud v:nameU="MidAngle" v:prompt="" v:val="VT0(1.5707963267949):32"/>
				<v:ud v:nameU="InnerDist" v:prompt="" v:val="VT0(0.41758274479521):24"/>
				<v:ud v:nameU="TipRad" v:prompt="" v:val="VT0(0.41758274479521):24"/>
				<v:ud v:nameU="MaxMinTipRad" v:prompt="" v:val="VT0(0.41758274479521):24"/>
				<v:ud v:nameU="BarRad" v:prompt="" v:val="VT0(0.53149606299213):24"/>
				<v:ud v:nameU="MaxMinBarRad" v:prompt="" v:val="VT0(0.53149606299213):24"/>
				<v:ud v:nameU="visVersion" v:prompt="" v:val="VT0(15):26"/>
				<v:ud v:nameU="InnerDist" v:prompt="" v:val="VT0(0.17051297969026):1"/>
				<v:ud v:nameU="TipRad" v:prompt="" v:val="VT0(0.17051297969026):1"/>
				<v:ud v:nameU="MaxMinTipRad" v:prompt="" v:val="VT0(0.17051297969026):1"/>
				<v:ud v:nameU="BarRad" v:prompt="" v:val="VT0(0.21702759159475):1"/>
				<v:ud v:nameU="MaxMinBarRad" v:prompt="" v:val="VT0(0.21702759159475):1"/>
			</v:userDefs>
			<path d="M26.04 104.83 L34.72 96.15 L32.99 96.15 A15.626 15.626 -180 0 0 1.74 96.15 L8.43 96.15 A8.92788 8.92788 0 0
						 1 26.29 96.15 L24.55 96.15 L26.04 104.83 Z" class="st2"/>
		</g>
		<g id="shape184-278" v:mID="184" v:groupContext="shape" transform="translate(313.931,-54.5611)">
			<title>工作表.184</title>
			<ellipse cx="1.84252" cy="111.673" rx="1.84252" ry="1.84252" class="st9"/>
		</g>
		<g id="group187-280" transform="translate(395.852,-11.0493)" v:mID="187" v:groupContext="group">
			<title>工作表.187</title>
			<g id="group188-281" v:mID="188" v:groupContext="group">
				<title>工作表.188</title>
				<g id="group189-282" transform="translate(4.96063,-1.41732)" v:mID="189" v:groupContext="group">
					<title>工作表.189</title>
					<g id="shape190-283" v:mID="190" v:groupContext="shape" transform="translate(17.0079,-12.7559)">
						<title>工作表.190</title>
						<rect x="0" y="51.1537" width="48.189" height="62.3622" class="st1"/>
					</g>
					<g id="group191-285" transform="translate(66.6142,-62.126)" v:mID="191" v:groupContext="group">
						<title>工作表.191</title>
						<g id="shape192-286" v:mID="192" v:groupContext="shape" transform="translate(1.41804E-07,1.42109E-14)">
							<title>工作表.192</title>
							<rect x="0" y="87.5317" width="15.5906" height="25.9843" class="st2"/>
						</g>
						<g id="shape193-288" v:mID="193" v:groupContext="shape" transform="translate(88.4884,167.8) rotate(135)">
							<title>工作表.193</title>
							<path d="M0 113.52 L11.63 113.52" class="st3"/>
						</g>
						<g id="shape194-291" v:mID="194" v:groupContext="shape"
								transform="translate(96.4597,167.194) rotate(134.569)">
							<title>工作表.194</title>
							<path d="M0 113.52 L22.22 113.52" class="st3"/>
						</g>
						<g id="shape195-294" v:mID="195" v:groupContext="shape" transform="translate(95.8585,175.406) rotate(135)">
							<title>工作表.195</title>
							<path d="M0 113.52 L22.05 113.52" class="st3"/>
						</g>
						<g id="shape196-297" v:mID="196" v:groupContext="shape"
								transform="translate(95.6818,183.236) rotate(135.126)">
							<title>工作表.196</title>
							<path d="M0 113.52 L15.2 113.52" class="st3"/>
						</g>
					</g>
					<g id="group197-300" transform="translate(66.6142,201.048) scale(1,-1)" v:mID="197" v:groupContext="group">
						<title>工作表.197</title>
						<g id="shape198-301" v:mID="198" v:groupContext="shape" transform="translate(1.41804E-07,1.42109E-14)">
							<title>工作表.198</title>
							<rect x="0" y="87.5317" width="15.5906" height="25.9843" class="st2"/>
						</g>
						<g id="shape199-303" v:mID="199" v:groupContext="shape" transform="translate(88.4884,167.8) rotate(135)">
							<title>工作表.199</title>
							<path d="M0 113.52 L11.63 113.52" class="st3"/>
						</g>
						<g id="shape200-306" v:mID="200" v:groupContext="shape"
								transform="translate(96.4597,167.194) rotate(134.569)">
							<title>工作表.200</title>
							<path d="M0 113.52 L22.22 113.52" class="st3"/>
						</g>
						<g id="shape201-309" v:mID="201" v:groupContext="shape" transform="translate(95.8585,175.406) rotate(135)">
							<title>工作表.201</title>
							<path d="M0 113.52 L22.05 113.52" class="st3"/>
						</g>
						<g id="shape202-312" v:mID="202" v:groupContext="shape"
								transform="translate(95.6818,183.236) rotate(135.126)">
							<title>工作表.202</title>
							<path d="M0 113.52 L15.2 113.52" class="st3"/>
						</g>
					</g>
					<g id="group203-315" transform="translate(1.39888E-14,138.922) scale(1,-1)" v:mID="203" v:groupContext="group">
						<title>工作表.203</title>
						<g id="shape204-316" v:mID="204" v:groupContext="shape" transform="translate(1.41804E-07,1.42109E-14)">
							<title>工作表.204</title>
							<rect x="0" y="87.5317" width="15.5906" height="25.9843" class="st2"/>
						</g>
						<g id="shape205-318" v:mID="205" v:groupContext="shape" transform="translate(88.4884,167.8) rotate(135)">
							<title>工作表.205</title>
							<path d="M0 113.52 L11.63 113.52" class="st3"/>
						</g>
						<g id="shape206-321" v:mID="206" v:groupContext="shape"
								transform="translate(96.4597,167.194) rotate(134.569)">
							<title>工作表.206</title>
							<path d="M0 113.52 L22.22 113.52" class="st3"/>
						</g>
						<g id="shape207-324" v:mID="207" v:groupContext="shape" transform="translate(95.8585,175.406) rotate(135)">
							<title>工作表.207</title>
							<path d="M0 113.52 L22.05 113.52" class="st3"/>
						</g>
						<g id="shape208-327" v:mID="208" v:groupContext="shape"
								transform="translate(95.6818,183.236) rotate(135.126)">
							<title>工作表.208</title>
							<path d="M0 113.52 L15.2 113.52" class="st3"/>
						</g>
					</g>
					<g id="group209-330" v:mID="209" v:groupContext="group">
						<title>工作表.209</title>
						<g id="shape210-331" v:mID="210" v:groupContext="shape" transform="translate(1.41804E-07,1.42109E-14)">
							<title>工作表.210</title>
							<rect x="0" y="87.5317" width="15.5906" height="25.9843" class="st2"/>
						</g>
						<g id="shape211-333" v:mID="211" v:groupContext="shape" transform="translate(88.4884,167.8) rotate(135)">
							<title>工作表.211</title>
							<path d="M0 113.52 L11.63 113.52" class="st3"/>
						</g>
						<g id="shape212-336" v:mID="212" v:groupContext="shape"
								transform="translate(96.4597,167.194) rotate(134.569)">
							<title>工作表.212</title>
							<path d="M0 113.52 L22.22 113.52" class="st3"/>
						</g>
						<g id="shape213-339" v:mID="213" v:groupContext="shape" transform="translate(95.8585,175.406) rotate(135)">
							<title>工作表.213</title>
							<path d="M0 113.52 L22.05 113.52" class="st3"/>
						</g>
						<g id="shape214-342" v:mID="214" v:groupContext="shape"
								transform="translate(95.6818,183.236) rotate(135.126)">
							<title>工作表.214</title>
							<path d="M0 113.52 L15.2 113.52" class="st3"/>
						</g>
					</g>
				</g>
				<g id="group215-345" v:mID="215" v:groupContext="group">
					<title>工作表.215</title>
					<g id="shape216-346" v:mID="216" v:groupContext="shape" transform="translate(1.59872E-14,-46.063)">
						<title>工作表.216</title>
						<path d="M0 113.52 L82.32 113.52" class="st4"/>
					</g>
					<g id="shape217-351" v:mID="217" v:groupContext="shape" transform="translate(-67.4529,113.516) rotate(-90)">
						<title>工作表.217</title>
						<path d="M0 113.52 L82.32 113.52" class="st4"/>
					</g>
				</g>
			</g>
			<g id="shape218-356" v:mID="218" v:groupContext="shape" transform="translate(72.9921,-48.189)">
				<title>工作表.218</title>
				<desc>x</desc>
				<v:textBlock v:margins="rect(4,4,4,4)" v:tabSpace="42.5197"/>
				<v:textRect cx="4.96062" cy="109.723" width="9.93" height="7.58641"/>
				<rect x="0" y="105.93" width="9.92125" height="7.58641" class="st6"/>
				<text x="4" y="112.12" class="st7" v:langID="2052"><v:paragraph v:horizAlign="1"/><v:tabList/>x</text>			</g>
			<g id="shape219-359" v:mID="219" v:groupContext="shape" transform="translate(48.189,-81.2462)">
				<title>工作表.219</title>
				<desc>y</desc>
				<v:textBlock v:margins="rect(4,4,4,4)" v:tabSpace="42.5197"/>
				<v:textRect cx="4.96062" cy="109.723" width="9.93" height="7.58641"/>
				<rect x="0" y="105.93" width="9.92125" height="7.58641" class="st6"/>
				<text x="4" y="112.12" class="st7" v:langID="2052"><v:paragraph v:horizAlign="1"/><v:tabList/>y</text>			</g>
		</g>
		<g id="shape220-362" v:mID="220" v:groupContext="shape" transform="translate(507.242,11.3564) rotate(90)">
			<title>普通箭头.220</title>
			<v:userDefs>
				<v:ud v:nameU="visVersion" v:val="VT0(15):26"/>
				<v:ud v:nameU="ArrowType" v:prompt="" v:val="VT0(2):26"/>
			</v:userDefs>
			<path d="M0 113.52 L8.06 110.68 L8.06 112.1 L28.75 112.1 L28.75 113.52 L28.75 114.93 L8.06 114.93 L8.06 116.35 L0 113.52
						 Z" class="st8"/>
		</g>
		<g id="shape223-364" v:mID="223" v:groupContext="shape" transform="translate(603.62,73.7186) rotate(90)">
			<title>普通箭头.223</title>
			<v:userDefs>
				<v:ud v:nameU="visVersion" v:val="VT0(15):26"/>
				<v:ud v:nameU="ArrowType" v:prompt="" v:val="VT0(2):26"/>
			</v:userDefs>
			<path d="M0 113.52 L8.06 110.68 L8.06 112.1 L28.75 112.1 L28.75 113.52 L28.75 114.93 L8.06 114.93 L8.06 116.35 L0 113.52
						 Z" class="st8"/>
		</g>
		<g id="shape224-366" v:mID="224" v:groupContext="shape" transform="translate(536.357,122.498) rotate(135)">
			<title>普通箭头.224</title>
			<v:userDefs>
				<v:ud v:nameU="visVersion" v:val="VT0(15):26"/>
				<v:ud v:nameU="ArrowType" v:prompt="" v:val="VT0(2):26"/>
			</v:userDefs>
			<path d="M0 113.52 L11.34 102.18 L11.34 107.85 L36.75 107.85 L36.75 113.52 L36.75 119.19 L11.34 119.19 L11.34 124.85
						 L0 113.52 Z" class="st2"/>
		</g>
	</g>
</svg>
